<svg id="Layer_1" data-name="Layer 1" xmlns="http://www.w3.org/2000/svg" xmlns:xlink="http://www.w3.org/1999/xlink" viewBox="0 0 151.33 103.1"><defs><style>.cls-1{fill:none;}.cls-2{clip-path:url(#clip-path);}.cls-3{fill:#ef4136;}.cls-4{fill:#00a9b8;}.cls-5{fill:#fff;}</style><clipPath id="clip-path" transform="translate(0 0)"><rect class="cls-1" width="151.58" height="117.98"/></clipPath></defs><title>NeuraLegion Logo No Tagline</title><g class="cls-2"><path class="cls-3" d="M3.82,77.67,1.49,71.09H1.42c0,1.62.11,3.25.21,4.88s.14,3.25.14,4.88V94.26H0V69.5H2.48L8.91,86.09l2.34,6.58h.07q-.08-2.44-.21-4.89C11,86.16,11,84.53,11,82.9V69.5h1.77V94.26H10.26Z" transform="translate(0 0)"/><path class="cls-3" d="M23,94.26a6.86,6.86,0,0,1-2.42-.39,4.87,4.87,0,0,1-1.74-1.06,4.39,4.39,0,0,1-1-1.58,5.12,5.12,0,0,1-.36-1.92V81.17a4.82,4.82,0,0,1,.36-1.86,4.26,4.26,0,0,1,1-1.52,4.66,4.66,0,0,1,1.74-1A7.11,7.11,0,0,1,23,76.39a6.93,6.93,0,0,1,2.32.36,5,5,0,0,1,1.69,1,4,4,0,0,1,1.05,1.42,4.31,4.31,0,0,1,.35,1.7v5.09H20l-.71-1.52h7.61V80.82a2.66,2.66,0,0,0-1-2.06A4.25,4.25,0,0,0,23,77.91a4.11,4.11,0,0,0-3,1,3.08,3.08,0,0,0-1,2.3v8.14a3.33,3.33,0,0,0,1,2.44,4,4,0,0,0,3,1h4.88v1.52Z" transform="translate(0 0)"/><path class="cls-3" d="M43.72,76.57V89.48a5.19,5.19,0,0,1-.35,1.91,4.75,4.75,0,0,1-1,1.58,4.81,4.81,0,0,1-1.69,1.08,7.49,7.49,0,0,1-4.71,0A4.85,4.85,0,0,1,34.22,93a4.72,4.72,0,0,1-1-1.58,5,5,0,0,1-.35-1.91V76.57h1.59V89.48a3.37,3.37,0,0,0,1,2.43,3.83,3.83,0,0,0,2.88,1,3.84,3.84,0,0,0,2.89-1,3.42,3.42,0,0,0,1-2.43V76.57Z" transform="translate(0 0)"/><path class="cls-3" d="M48.67,81.88A5.83,5.83,0,0,1,49,79.82,4.68,4.68,0,0,1,51.81,77a6.23,6.23,0,0,1,2.42-.43h.88v1.52h-.88a3.81,3.81,0,0,0-3,1.1,3.87,3.87,0,0,0-1,2.69V94.26h-1.6Z" transform="translate(0 0)"/><path class="cls-3" d="M58.65,76.57h4.53a5.92,5.92,0,0,1,2.21.39A4.47,4.47,0,0,1,68,79.6a5.12,5.12,0,0,1,.36,1.92V94.26h-.82l-.63-2.16a4.57,4.57,0,0,1-1.68,1.7,5.39,5.39,0,0,1-2.74.63,7.16,7.16,0,0,1-2.46-.35,3.92,3.92,0,0,1-1.56-1,3.51,3.51,0,0,1-.83-1.5,7,7,0,0,1-.25-2,5,5,0,0,1,.43-2.18A4.44,4.44,0,0,1,59,86a5.82,5.82,0,0,1,1.68-1,9.94,9.94,0,0,1,2-.55l4.18-.72.64,1.45L63,86a9.29,9.29,0,0,0-1.51.39,3.89,3.89,0,0,0-1.27.69,3.06,3.06,0,0,0-.87,1.08A3.47,3.47,0,0,0,59,89.7,5.51,5.51,0,0,0,59.13,91a2,2,0,0,0,.51,1,2.5,2.5,0,0,0,1.11.65,6.27,6.27,0,0,0,1.9.23A3.71,3.71,0,0,0,66.79,89V81.52a3.45,3.45,0,0,0-.94-2.42,3.49,3.49,0,0,0-2.67-1H58.65Z" transform="translate(0 0)"/></g><polygon class="cls-4" points="74.85 69.5 74.85 92.63 84.05 92.63 84.05 94.26 73.08 94.26 73.08 69.5 74.85 69.5"/><g class="cls-2"><path class="cls-4" d="M92.47,94.26A7,7,0,0,1,90,93.87a4.91,4.91,0,0,1-1.73-1.06,4.39,4.39,0,0,1-1-1.58,5.12,5.12,0,0,1-.36-1.92V81.17a4.82,4.82,0,0,1,.36-1.86,4.26,4.26,0,0,1,1-1.52,4.7,4.7,0,0,1,1.73-1,7.21,7.21,0,0,1,2.43-.38,6.83,6.83,0,0,1,2.31.36,5,5,0,0,1,1.7,1,4,4,0,0,1,1,1.42,4.31,4.31,0,0,1,.35,1.7v5.09h-10l0-1.52h8.35V80.82a2.64,2.64,0,0,0-1-2.06,4.21,4.21,0,0,0-2.84-.85,4.1,4.1,0,0,0-3,1,3.09,3.09,0,0,0-1,2.3v8.14a3.34,3.34,0,0,0,1,2.44,4,4,0,0,0,3,1h4.88v1.52Z" transform="translate(0 0)"/><path class="cls-4" d="M111.78,76.57h1.59V98.15a5.37,5.37,0,0,1-.35,1.93,4.49,4.49,0,0,1-1,1.57,4.87,4.87,0,0,1-1.74,1.06,6.86,6.86,0,0,1-2.42.39h-4.88v-1.52h4.88a4,4,0,0,0,3-1,3.31,3.31,0,0,0,1-2.44V94.26h-4.17a6.12,6.12,0,0,1-2.43-.46,5.1,5.1,0,0,1-1.73-1.22,5,5,0,0,1-1-1.79,6.53,6.53,0,0,1-.36-2.19V82.23a6.53,6.53,0,0,1,.36-2.19,5,5,0,0,1,1-1.79A5.1,5.1,0,0,1,105.18,77a6,6,0,0,1,2.43-.46h4.76l0,1.52h-4.73a3.63,3.63,0,0,0-3,1.22,4.51,4.51,0,0,0-1,2.92V88.6a4.51,4.51,0,0,0,1,2.92,3.63,3.63,0,0,0,3,1.22h4.17Z" transform="translate(0 0)"/></g><path class="cls-4" d="M118.29,94.26h1.59V76.57h-1.59Zm0-24.06h1.59v2.48h-1.59Z" transform="translate(0 0)"/><g class="cls-2"><path class="cls-4" d="M134.17,80.93l1.59,0v8.52a4.82,4.82,0,0,1-.37,1.91A4.69,4.69,0,0,1,134.31,93a4.94,4.94,0,0,1-1.76,1.08,8.06,8.06,0,0,1-4.89,0A5.07,5.07,0,0,1,125.89,93a4.66,4.66,0,0,1-1.07-1.58,4.82,4.82,0,0,1-.38-1.91V81.35a4.92,4.92,0,0,1,.38-1.9,4.6,4.6,0,0,1,1.07-1.59,5.07,5.07,0,0,1,1.77-1.08,7.86,7.86,0,0,1,4.89,0,4.94,4.94,0,0,1,1.76,1.08,4.63,4.63,0,0,1,1.08,1.59,4.91,4.91,0,0,1,.37,1.9h-1.59a3.29,3.29,0,0,0-1-2.43,5.1,5.1,0,0,0-6.09,0,3.29,3.29,0,0,0-1,2.43v8.13a3.28,3.28,0,0,0,1,2.42,5.1,5.1,0,0,0,6.09,0,3.28,3.28,0,0,0,1-2.42Z" transform="translate(0 0)"/><path class="cls-4" d="M140.36,77.43l1.59,0v16.8h-1.59Zm0-.86h5.87a5.82,5.82,0,0,1,2.16.37,4.87,4.87,0,0,1,1.61,1,4.08,4.08,0,0,1,1,1.45,4.64,4.64,0,0,1,.34,1.79V94.26h-1.59V81.17a3.54,3.54,0,0,0-.2-1.19,2.54,2.54,0,0,0-.63-1,3.16,3.16,0,0,0-1.17-.67,5.76,5.76,0,0,0-1.79-.25h-5.59Z" transform="translate(0 0)"/></g><rect class="cls-4" x="61.27" y="1.72" width="0.94" height="22.77" transform="translate(8.95 47.7) rotate(-45.22)"/><rect class="cls-4" x="61.57" y="1.48" width="0.94" height="37.62" transform="translate(-2.1 32.39) rotate(-28.8)"/><rect class="cls-4" x="60.75" y="2.87" width="0.94" height="52.99" transform="translate(-6.49 24.28) rotate(-21.33)"/><rect class="cls-4" x="53.21" y="3.39" width="16.83" height="0.94"/><rect class="cls-4" x="52.97" y="21.76" width="16.83" height="0.94"/><rect class="cls-4" x="52.97" y="38.55" width="16.83" height="0.94"/><rect class="cls-4" x="60.92" y="19.34" width="0.94" height="22.92" transform="translate(-2.89 54.99) rotate(-47.27)"/><rect class="cls-4" x="60.92" y="37.58" width="0.94" height="22.92" transform="translate(-16.29 60.86) rotate(-47.27)"/><rect class="cls-4" x="50.89" y="12.9" width="22.25" height="0.94" transform="translate(7.14 45.2) rotate(-42.28)"/><rect class="cls-4" x="51.09" y="30.29" width="22.13" height="0.94" transform="translate(-5.01 48.05) rotate(-40.77)"/><rect class="cls-4" x="44.49" y="21.27" width="34.97" height="0.94" transform="translate(9.16 60.79) rotate(-55.8)"/><rect class="cls-4" x="73.24" y="12.67" width="22.77" height="0.94" transform="translate(15.31 63.43) rotate(-44.78)"/><rect class="cls-4" x="65.79" y="19.69" width="37.26" height="0.94" transform="translate(26.08 84.43) rotate(-61.2)"/><rect class="cls-4" x="58.66" y="28.92" width="52.99" height="0.94" transform="translate(26.82 98.04) rotate(-68.69)"/><rect class="cls-4" x="76.33" y="3.42" width="16.83" height="0.94"/><rect class="cls-4" x="76.56" y="21.79" width="16.83" height="0.94"/><rect class="cls-4" x="76.56" y="38.58" width="16.83" height="0.94"/><rect class="cls-4" x="73.52" y="30.36" width="22.92" height="0.94" transform="translate(1.65 65.89) rotate(-42.76)"/><rect class="cls-4" x="73.52" y="48.6" width="22.92" height="0.94" transform="translate(-10.73 70.73) rotate(-42.76)"/><rect class="cls-4" x="83.89" y="2.28" width="0.94" height="22.25" transform="matrix(0.67, -0.74, 0.74, 0.67, 17.72, 66.84)"/><rect class="cls-4" x="83.74" y="19.73" width="0.94" height="22.13" transform="translate(5.9 74.46) rotate(-49.23)"/><rect class="cls-4" x="83.54" y="3.6" width="0.94" height="35.83" transform="translate(2.71 51.69) rotate(-34.73)"/><rect class="cls-4" x="49.8" y="3.66" width="0.94" height="34.08"/><rect class="cls-4" x="95.63" y="3.66" width="0.94" height="34.08"/><g class="cls-2"><path class="cls-5" d="M76.58,3.86A3.39,3.39,0,1,1,73.19.47a3.38,3.38,0,0,1,3.39,3.39" transform="translate(0 0)"/><path class="cls-5" d="M76.58,21.44a3.39,3.39,0,1,1-3.39-3.39,3.39,3.39,0,0,1,3.39,3.39" transform="translate(0 0)"/><path class="cls-5" d="M76.58,39a3.39,3.39,0,1,1-3.39-3.38A3.39,3.39,0,0,1,76.58,39" transform="translate(0 0)"/><path class="cls-5" d="M76.58,56.48a3.39,3.39,0,1,1-3.39-3.38,3.39,3.39,0,0,1,3.39,3.38" transform="translate(0 0)"/><path class="cls-3" d="M73.19.94a2.92,2.92,0,1,0,2.92,2.92A2.92,2.92,0,0,0,73.19.94m0,6.77a3.86,3.86,0,1,1,3.86-3.85,3.86,3.86,0,0,1-3.86,3.85" transform="translate(0 0)"/><path class="cls-3" d="M73.19,18.52a2.92,2.92,0,1,0,2.92,2.92,2.92,2.92,0,0,0-2.92-2.92m0,6.78a3.86,3.86,0,1,1,3.86-3.86,3.86,3.86,0,0,1-3.86,3.86" transform="translate(0 0)"/><path class="cls-3" d="M73.19,36.11A2.92,2.92,0,1,0,76.11,39a2.91,2.91,0,0,0-2.92-2.91m0,6.77A3.86,3.86,0,1,1,77.05,39a3.86,3.86,0,0,1-3.86,3.86" transform="translate(0 0)"/><path class="cls-3" d="M73.19,53.56a2.92,2.92,0,1,0,2.92,2.92,2.92,2.92,0,0,0-2.92-2.92m0,6.78a3.86,3.86,0,1,1,3.86-3.86,3.86,3.86,0,0,1-3.86,3.86" transform="translate(0 0)"/><path class="cls-5" d="M53.66,3.86A3.39,3.39,0,1,1,50.27.47a3.38,3.38,0,0,1,3.39,3.39" transform="translate(0 0)"/><path class="cls-3" d="M50.27.94a2.92,2.92,0,1,0,2.92,2.92A2.92,2.92,0,0,0,50.27.94m0,6.77a3.86,3.86,0,1,1,3.86-3.85,3.86,3.86,0,0,1-3.86,3.85" transform="translate(0 0)"/><path class="cls-5" d="M53.66,21.44a3.39,3.39,0,1,1-3.39-3.39,3.39,3.39,0,0,1,3.39,3.39" transform="translate(0 0)"/><path class="cls-3" d="M50.27,18.52a2.92,2.92,0,1,0,2.92,2.92,2.92,2.92,0,0,0-2.92-2.92m0,6.78a3.86,3.86,0,1,1,3.86-3.86,3.86,3.86,0,0,1-3.86,3.86" transform="translate(0 0)"/><path class="cls-5" d="M53.66,39a3.39,3.39,0,1,1-3.39-3.38A3.39,3.39,0,0,1,53.66,39" transform="translate(0 0)"/><path class="cls-3" d="M50.27,36.11A2.92,2.92,0,1,0,53.19,39a2.91,2.91,0,0,0-2.92-2.91m0,6.77A3.86,3.86,0,1,1,54.13,39a3.86,3.86,0,0,1-3.86,3.86" transform="translate(0 0)"/><path class="cls-5" d="M92.71,3.89A3.39,3.39,0,1,0,96.1.5a3.38,3.38,0,0,0-3.39,3.39" transform="translate(0 0)"/><path class="cls-3" d="M96.1,1A2.92,2.92,0,1,0,99,3.89,2.92,2.92,0,0,0,96.1,1m0,6.78A3.86,3.86,0,1,1,100,3.89,3.86,3.86,0,0,1,96.1,7.75" transform="translate(0 0)"/><path class="cls-5" d="M92.71,21.47a3.39,3.39,0,1,0,3.39-3.39,3.39,3.39,0,0,0-3.39,3.39" transform="translate(0 0)"/><path class="cls-3" d="M96.1,18.55A2.92,2.92,0,1,0,99,21.47a2.92,2.92,0,0,0-2.92-2.92m0,6.78A3.86,3.86,0,1,1,100,21.47a3.86,3.86,0,0,1-3.86,3.86" transform="translate(0 0)"/><path class="cls-5" d="M92.71,39.05a3.39,3.39,0,1,0,3.39-3.38,3.39,3.39,0,0,0-3.39,3.38" transform="translate(0 0)"/><path class="cls-3" d="M96.1,36.14A2.92,2.92,0,1,0,99,39.05a2.91,2.91,0,0,0-2.92-2.91m0,6.77A3.86,3.86,0,1,1,100,39.05a3.86,3.86,0,0,1-3.86,3.86" transform="translate(0 0)"/></g></svg>