<svg id="Layer_1" data-name="Layer 1" xmlns="http://www.w3.org/2000/svg" xmlns:xlink="http://www.w3.org/1999/xlink" viewBox="0 0 138 138"><defs><style>.cls-1{fill:none;}.cls-2{fill:#00a8b7;}.cls-3{clip-path:url(#clip-path);}.cls-4{fill:#fff;}.cls-5{fill:#ee4036;}</style><clipPath id="clip-path"><rect class="cls-1" x="14" y="9.02" width="110" height="123.97"/></clipPath></defs><title>Untitled-1</title><rect class="cls-2" x="44.52" y="12.56" width="1.93" height="46.78" transform="translate(-12.07 42.92) rotate(-45.22)"/><rect class="cls-2" x="45.13" y="12.06" width="1.93" height="77.28" transform="translate(-18.72 28.48) rotate(-28.8)"/><rect class="cls-2" x="43.45" y="14.91" width="1.93" height="108.86" transform="translate(-22.18 20.91) rotate(-21.33)"/><rect class="cls-2" x="27.96" y="15.98" width="34.58" height="1.93"/><rect class="cls-2" x="27.48" y="53.73" width="34.58" height="1.93"/><rect class="cls-2" x="27.48" y="88.22" width="34.58" height="1.93"/><polygon class="cls-2" points="61.41 88.98 26.82 57.03 28.14 55.62 62.72 87.56 61.41 88.98"/><rect class="cls-2" x="43.81" y="86.22" width="1.93" height="47.08" transform="translate(-66.23 68.17) rotate(-47.27)"/><rect class="cls-2" x="23.19" y="35.52" width="45.72" height="1.93" transform="translate(-12.57 40.45) rotate(-42.26)"/><rect class="cls-2" x="23.61" y="71.25" width="45.47" height="1.93" transform="translate(-35.9 47.76) rotate(-40.75)"/><rect class="cls-2" x="10.06" y="52.72" width="71.85" height="1.93" transform="translate(-24.27 61.49) rotate(-55.76)"/><rect class="cls-2" x="69.12" y="35.05" width="46.79" height="1.93" transform="translate(1.48 75.62) rotate(-44.79)"/><rect class="cls-2" x="53.8" y="49.48" width="76.56" height="1.93" transform="translate(3.54 106.87) rotate(-61.23)"/><rect class="cls-2" x="39.16" y="68.44" width="108.86" height="1.93" transform="translate(-5.12 131.3) rotate(-68.65)"/><rect class="cls-2" x="75.46" y="16.04" width="34.58" height="1.93"/><rect class="cls-2" x="75.94" y="53.79" width="34.58" height="1.93"/><rect class="cls-2" x="75.94" y="88.29" width="34.58" height="1.93"/><rect class="cls-2" x="69.69" y="71.4" width="47.08" height="1.93" transform="translate(-24.34 82.6) rotate(-42.8)"/><polygon class="cls-2" points="76.59 126.51 75.28 125.09 109.86 93.14 111.17 94.56 76.59 126.51"/><rect class="cls-2" x="90.99" y="13.69" width="1.93" height="45.71" transform="translate(3.07 80.05) rotate(-47.75)"/><rect class="cls-2" x="90.69" y="49.55" width="1.93" height="45.47" transform="translate(-22.94 94.49) rotate(-49.23)"/><rect class="cls-2" x="90.27" y="16.42" width="1.93" height="73.61" transform="translate(-14.07 61.46) rotate(-34.73)"/><rect class="cls-2" x="20.96" y="16.54" width="1.93" height="70.01"/><rect class="cls-2" x="115.11" y="16.54" width="1.93" height="70.01"/><g class="cls-3"><path class="cls-4" d="M76,16.94a7,7,0,1,1-7-7,7,7,0,0,1,7,7"/><path class="cls-4" d="M76,53.07a7,7,0,1,1-7-7,7,7,0,0,1,7,7"/><path class="cls-4" d="M76,89.19a7,7,0,1,1-7-7,7,7,0,0,1,7,7"/><path class="cls-4" d="M76,125.06a7,7,0,1,1-7-7,7,7,0,0,1,7,7"/><path class="cls-5" d="M69,11a6,6,0,1,0,6,6,6,6,0,0,0-6-6m0,13.92A7.93,7.93,0,1,1,77,16.94,7.94,7.94,0,0,1,69,24.87"/><path class="cls-5" d="M69,47.07a6,6,0,1,0,6,6,6,6,0,0,0-6-6M69,61A7.93,7.93,0,1,1,77,53.07,7.94,7.94,0,0,1,69,61"/><path class="cls-5" d="M69,83.2a6,6,0,1,0,6,6,6,6,0,0,0-6-6m0,13.91A7.93,7.93,0,1,1,77,89.19,7.93,7.93,0,0,1,69,97.11"/><path class="cls-5" d="M69,119.06a6,6,0,1,0,6,6,6,6,0,0,0-6-6M69,133A7.93,7.93,0,1,1,77,125.06,7.93,7.93,0,0,1,69,133"/><path class="cls-4" d="M28.88,16.94a7,7,0,1,1-7-7,7,7,0,0,1,7,7"/><path class="cls-5" d="M21.92,11a6,6,0,1,0,6,6,6,6,0,0,0-6-6m0,13.92a7.93,7.93,0,1,1,7.93-7.93,7.94,7.94,0,0,1-7.93,7.93"/><path class="cls-4" d="M28.88,53.07a7,7,0,1,1-7-7,7,7,0,0,1,7,7"/><path class="cls-5" d="M21.92,47.07a6,6,0,1,0,6,6,6,6,0,0,0-6-6m0,13.92a7.93,7.93,0,1,1,7.93-7.92A7.94,7.94,0,0,1,21.92,61"/><path class="cls-4" d="M28.88,89.19a7,7,0,1,1-7-7,7,7,0,0,1,7,7"/><path class="cls-5" d="M21.92,83.2a6,6,0,1,0,6,6,6,6,0,0,0-6-6m0,13.91a7.93,7.93,0,1,1,7.93-7.92,7.93,7.93,0,0,1-7.93,7.92"/><path class="cls-4" d="M109.12,17a7,7,0,1,0,7-7,7,7,0,0,0-7,7"/><path class="cls-5" d="M116.08,11a6,6,0,1,0,6,6,6,6,0,0,0-6-6m0,13.92A7.93,7.93,0,1,1,124,17a7.93,7.93,0,0,1-7.92,7.92"/><path class="cls-4" d="M109.12,53.13a7,7,0,1,0,7-7,7,7,0,0,0-7,7"/><path class="cls-5" d="M116.08,47.13a6,6,0,1,0,6,6,6,6,0,0,0-6-6m0,13.92A7.93,7.93,0,1,1,124,53.13a7.93,7.93,0,0,1-7.92,7.92"/><path class="cls-4" d="M109.12,89.25a7,7,0,1,0,7-7,7,7,0,0,0-7,7"/><path class="cls-5" d="M116.08,83.26a6,6,0,1,0,6,6,6,6,0,0,0-6-6m0,13.92A7.93,7.93,0,1,1,124,89.25a7.94,7.94,0,0,1-7.92,7.93"/></g></svg>